<svg viewBox="0 0 200 200" xmlns="http://www.w3.org/2000/svg">
  <circle cx="100" cy="100" r="96" fill="#f1f5f9"/>
  <g fill="#94a3b8">
    <circle cx="100" cy="100" r="36"/>
    <g>
      <rect x="93" y="38" width="14" height="20" rx="3"/>
      <rect x="93" y="142" width="14" height="20" rx="3"/>
      <rect x="38" y="93" width="20" height="14" rx="3"/>
      <rect x="142" y="93" width="20" height="14" rx="3"/>
      <rect x="93" y="38" width="14" height="20" rx="3" transform="rotate(45 100 100)"/>
      <rect x="93" y="142" width="14" height="20" rx="3" transform="rotate(45 100 100)"/>
      <rect x="38" y="93" width="20" height="14" rx="3" transform="rotate(45 100 100)"/>
      <rect x="142" y="93" width="20" height="14" rx="3" transform="rotate(45 100 100)"/>
    </g>
  </g>
  <circle cx="100" cy="100" r="17" fill="#f1f5f9" stroke="#64748b" stroke-width="5"/>
  <path d="M122 78 L148 52" stroke="#f97316" stroke-width="11" stroke-linecap="round"/>
  <circle cx="153" cy="47" r="13" fill="none" stroke="#f97316" stroke-width="9"/>
</svg>
