<svg width="64" height="64" viewBox="0 0 64 64" fill="none" xmlns="http://www.w3.org/2000/svg">
  <defs>
    <linearGradient id="modernFavGradient" x1="0%" y1="0%" x2="100%" y2="100%">
      <stop offset="0%" style="stop-color:#f97316;stop-opacity:1" />
      <stop offset="50%" style="stop-color:#fb923c;stop-opacity:1" />
      <stop offset="100%" style="stop-color:#c2410c;stop-opacity:1" />
    </linearGradient>
    <filter id="shadow">
      <feDropShadow dx="0" dy="2" stdDeviation="3" flood-opacity="0.3"/>
    </filter>
  </defs>

  <!-- Modern Circular Background with subtle gradient -->
  <circle cx="32" cy="32" r="31" fill="url(#modernFavGradient)"/>
  <circle cx="32" cy="32" r="28" fill="url(#modernFavGradient)" opacity="0.9"/>

  <!-- Modern Geometric Gear Mark -->
  <g transform="translate(32, 32)" filter="url(#shadow)">
    <g fill="white" opacity="0.95">
      <path d="M -3.4 -17 L 3.4 -17 L 4.9 -11 L -4.9 -11 Z" />
      <path d="M -3.4 17 L 3.4 17 L 4.9 11 L -4.9 11 Z" />
      <path d="M -17 -3.4 L -17 3.4 L -11 4.9 L -11 -4.9 Z" />
      <path d="M 17 -3.4 L 17 3.4 L 11 4.9 L 11 -4.9 Z" />
      <path d="M -12 -12 L -7.1 -7.1 L -8.6 -3.6 L -15.5 -8.6 Z" />
      <path d="M 12 12 L 7.1 7.1 L 8.6 3.6 L 15.5 8.6 Z" />
      <path d="M -12 12 L -7.1 7.1 L -8.6 3.6 L -15.5 8.6 Z" />
      <path d="M 12 -12 L 7.1 -7.1 L 8.6 -3.6 L 15.5 -8.6 Z" />
      <circle cx="0" cy="0" r="11.5" />
    </g>
    <circle cx="0" cy="0" r="5.5" fill="url(#modernFavGradient)" />
  </g>
</svg>
